<svg id="visual" viewBox="0 0 1980 1020" width="1980" height="1020" xmlns="http://www.w3.org/2000/svg" xmlns:xlink="http://www.w3.org/1999/xlink" version="1.1"><rect x="0" y="0" width="1980" height="1020" fill="#001220"></rect><defs><linearGradient id="grad1_0" x1="48.5%" y1="0%" x2="100%" y2="100%"><stop offset="11.176470588235295%" stop-color="#fcf876" stop-opacity="1"></stop><stop offset="88.82352941176471%" stop-color="#fcf876" stop-opacity="1"></stop></linearGradient></defs><defs><linearGradient id="grad1_1" x1="48.5%" y1="0%" x2="100%" y2="100%"><stop offset="11.176470588235295%" stop-color="#fcf876" stop-opacity="1"></stop><stop offset="88.82352941176471%" stop-color="#aadd76" stop-opacity="1"></stop></linearGradient></defs><defs><linearGradient id="grad1_2" x1="48.5%" y1="0%" x2="100%" y2="100%"><stop offset="11.176470588235295%" stop-color="#61bd7b" stop-opacity="1"></stop><stop offset="88.82352941176471%" stop-color="#aadd76" stop-opacity="1"></stop></linearGradient></defs><defs><linearGradient id="grad1_3" x1="48.5%" y1="0%" x2="100%" y2="100%"><stop offset="11.176470588235295%" stop-color="#61bd7b" stop-opacity="1"></stop><stop offset="88.82352941176471%" stop-color="#0c9a7d" stop-opacity="1"></stop></linearGradient></defs><defs><linearGradient id="grad1_4" x1="48.5%" y1="0%" x2="100%" y2="100%"><stop offset="11.176470588235295%" stop-color="#007675" stop-opacity="1"></stop><stop offset="88.82352941176471%" stop-color="#0c9a7d" stop-opacity="1"></stop></linearGradient></defs><defs><linearGradient id="grad1_5" x1="48.5%" y1="0%" x2="100%" y2="100%"><stop offset="11.176470588235295%" stop-color="#007675" stop-opacity="1"></stop><stop offset="88.82352941176471%" stop-color="#005261" stop-opacity="1"></stop></linearGradient></defs><defs><linearGradient id="grad1_6" x1="48.5%" y1="0%" x2="100%" y2="100%"><stop offset="11.176470588235295%" stop-color="#003143" stop-opacity="1"></stop><stop offset="88.82352941176471%" stop-color="#005261" stop-opacity="1"></stop></linearGradient></defs><defs><linearGradient id="grad1_7" x1="48.5%" y1="0%" x2="100%" y2="100%"><stop offset="11.176470588235295%" stop-color="#003143" stop-opacity="1"></stop><stop offset="88.82352941176471%" stop-color="#001220" stop-opacity="1"></stop></linearGradient></defs><defs><linearGradient id="grad2_0" x1="0%" y1="0%" x2="51.5%" y2="100%"><stop offset="11.176470588235295%" stop-color="#fcf876" stop-opacity="1"></stop><stop offset="88.82352941176471%" stop-color="#fcf876" stop-opacity="1"></stop></linearGradient></defs><defs><linearGradient id="grad2_1" x1="0%" y1="0%" x2="51.5%" y2="100%"><stop offset="11.176470588235295%" stop-color="#aadd76" stop-opacity="1"></stop><stop offset="88.82352941176471%" stop-color="#fcf876" stop-opacity="1"></stop></linearGradient></defs><defs><linearGradient id="grad2_2" x1="0%" y1="0%" x2="51.5%" y2="100%"><stop offset="11.176470588235295%" stop-color="#aadd76" stop-opacity="1"></stop><stop offset="88.82352941176471%" stop-color="#61bd7b" stop-opacity="1"></stop></linearGradient></defs><defs><linearGradient id="grad2_3" x1="0%" y1="0%" x2="51.5%" y2="100%"><stop offset="11.176470588235295%" stop-color="#0c9a7d" stop-opacity="1"></stop><stop offset="88.82352941176471%" stop-color="#61bd7b" stop-opacity="1"></stop></linearGradient></defs><defs><linearGradient id="grad2_4" x1="0%" y1="0%" x2="51.5%" y2="100%"><stop offset="11.176470588235295%" stop-color="#0c9a7d" stop-opacity="1"></stop><stop offset="88.82352941176471%" stop-color="#007675" stop-opacity="1"></stop></linearGradient></defs><defs><linearGradient id="grad2_5" x1="0%" y1="0%" x2="51.5%" y2="100%"><stop offset="11.176470588235295%" stop-color="#005261" stop-opacity="1"></stop><stop offset="88.82352941176471%" stop-color="#007675" stop-opacity="1"></stop></linearGradient></defs><defs><linearGradient id="grad2_6" x1="0%" y1="0%" x2="51.5%" y2="100%"><stop offset="11.176470588235295%" stop-color="#005261" stop-opacity="1"></stop><stop offset="88.82352941176471%" stop-color="#003143" stop-opacity="1"></stop></linearGradient></defs><defs><linearGradient id="grad2_7" x1="0%" y1="0%" x2="51.5%" y2="100%"><stop offset="11.176470588235295%" stop-color="#001220" stop-opacity="1"></stop><stop offset="88.82352941176471%" stop-color="#003143" stop-opacity="1"></stop></linearGradient></defs><g transform="translate(1980, 0)"><path d="M0 561C-21.9 460.4 -43.7 359.7 -97.6 364.2C-151.4 368.6 -237.2 478.2 -280.5 485.8C-323.8 493.5 -324.6 399.3 -342.9 342.9C-361.3 286.6 -397.2 268 -407 235C-416.9 202 -400.8 154.7 -422.1 113.1C-443.4 71.5 -502.2 35.8 -561 0L0 0Z" fill="#002132"></path><path d="M0 490.9C-19.1 402.8 -38.3 314.7 -85.4 318.6C-132.5 322.5 -207.5 418.4 -245.4 425.1C-283.3 431.8 -284 349.4 -300.1 300.1C-316.1 250.7 -347.5 234.5 -356.2 205.6C-364.8 176.8 -350.7 135.3 -369.3 99C-388 62.6 -439.4 31.3 -490.9 0L0 0Z" fill="#004153"></path><path d="M0 420.8C-16.4 345.3 -32.8 269.8 -73.2 273.1C-113.6 276.5 -177.9 358.6 -210.4 364.4C-242.9 370.1 -243.5 299.5 -257.2 257.2C-271 214.9 -297.9 201 -305.3 176.3C-312.7 151.5 -300.6 116 -316.6 84.8C-332.6 53.7 -376.7 26.8 -420.7 0L0 0Z" fill="#00646c"></path><path d="M0 350.6C-13.7 287.7 -27.3 224.8 -61 227.6C-94.6 230.4 -148.2 298.8 -175.3 303.7C-202.4 308.5 -202.9 249.6 -214.3 214.3C-225.8 179.1 -248.2 167.5 -254.4 146.9C-260.6 126.3 -250.5 96.7 -263.8 70.7C-277.1 44.7 -313.9 22.4 -350.6 0L0 0Z" fill="#00887a"></path><path d="M0 280.5C-10.9 230.2 -21.9 179.9 -48.8 182.1C-75.7 184.3 -118.6 239.1 -140.2 242.9C-161.9 246.8 -162.3 199.7 -171.5 171.5C-180.6 143.3 -198.6 134 -203.5 117.5C-208.5 101 -200.4 77.3 -211.1 56.6C-221.7 35.8 -251.1 17.9 -280.5 0L0 0Z" fill="#3dac7d"></path><path d="M0 210.4C-8.2 172.6 -16.4 134.9 -36.6 136.6C-56.8 138.2 -88.9 179.3 -105.2 182.2C-121.4 185.1 -121.7 149.8 -128.6 128.6C-135.5 107.5 -148.9 100.5 -152.6 88.1C-156.3 75.8 -150.3 58 -158.3 42.4C-166.3 26.8 -188.3 13.4 -210.4 0L0 0Z" fill="#85cd78"></path><path d="M0 140.3C-5.5 115.1 -10.9 89.9 -24.4 91C-37.9 92.2 -59.3 119.5 -70.1 121.5C-81 123.4 -81.2 99.8 -85.7 85.7C-90.3 71.6 -99.3 67 -101.8 58.8C-104.2 50.5 -100.2 38.7 -105.5 28.3C-110.9 17.9 -125.6 8.9 -140.2 0L0 0Z" fill="#d2eb74"></path><path d="M0 70.1C-2.7 57.5 -5.5 45 -12.2 45.5C-18.9 46.1 -29.6 59.8 -35.1 60.7C-40.5 61.7 -40.6 49.9 -42.9 42.9C-45.2 35.8 -49.6 33.5 -50.9 29.4C-52.1 25.3 -50.1 19.3 -52.8 14.1C-55.4 8.9 -62.8 4.5 -70.1 0L0 0Z" fill="#fcf876"></path></g><g transform="translate(0, 1020)"><path d="M0 -561C44.8 -526.8 89.5 -492.6 123.5 -460.7C157.4 -428.9 180.5 -399.4 228.5 -395.8C276.5 -392.1 349.4 -414.3 396.7 -396.7C444 -379.1 465.6 -321.8 465.1 -268.5C464.5 -215.2 441.7 -165.7 454 -121.6C466.3 -77.6 513.6 -38.8 561 0L0 0Z" fill="#002132"></path><path d="M0 -490.9C39.2 -460.9 78.3 -431 108 -403.2C137.7 -375.3 157.9 -349.5 199.9 -346.3C241.9 -343.1 305.7 -362.5 347.1 -347.1C388.5 -331.7 407.4 -281.6 406.9 -234.9C406.4 -188.3 386.5 -145 397.2 -106.4C408 -67.9 449.4 -33.9 490.9 0L0 0Z" fill="#004153"></path><path d="M0 -420.7C33.6 -395.1 67.1 -369.4 92.6 -345.6C118 -321.7 135.4 -299.6 171.4 -296.8C207.4 -294.1 262.1 -310.7 297.5 -297.5C333 -284.3 349.2 -241.4 348.8 -201.4C348.4 -161.4 331.3 -124.3 340.5 -91.2C349.7 -58.2 385.2 -29.1 420.8 0L0 0Z" fill="#00646c"></path><path d="M0 -350.6C28 -329.2 56 -307.9 77.2 -288C98.4 -268.1 112.8 -249.6 142.8 -247.4C172.8 -245.1 218.4 -258.9 247.9 -247.9C277.5 -237 291 -201.2 290.7 -167.8C290.3 -134.5 276.1 -103.6 283.7 -76C291.4 -48.5 321 -24.2 350.6 0L0 0Z" fill="#00887a"></path><path d="M0 -280.5C22.4 -263.4 44.8 -246.3 61.7 -230.4C78.7 -214.5 90.2 -199.7 114.2 -197.9C138.3 -196.1 174.7 -207.1 198.3 -198.3C222 -189.6 232.8 -160.9 232.5 -134.3C232.2 -107.6 220.8 -82.9 227 -60.8C233.1 -38.8 256.8 -19.4 280.5 0L0 0Z" fill="#3dac7d"></path><path d="M0 -210.4C16.8 -197.5 33.6 -184.7 46.3 -172.8C59 -160.8 67.7 -149.8 85.7 -148.4C103.7 -147 131 -155.3 148.8 -148.8C166.5 -142.2 174.6 -120.7 174.4 -100.7C174.2 -80.7 165.6 -62.2 170.2 -45.6C174.9 -29.1 192.6 -14.5 210.4 0L0 0Z" fill="#85cd78"></path><path d="M0 -140.2C11.2 -131.7 22.4 -123.1 30.9 -115.2C39.3 -107.2 45.1 -99.9 57.1 -98.9C69.1 -98 87.4 -103.6 99.2 -99.2C111 -94.8 116.4 -80.5 116.3 -67.1C116.1 -53.8 110.4 -41.4 113.5 -30.4C116.6 -19.4 128.4 -9.7 140.3 0L0 0Z" fill="#d2eb74"></path><path d="M0 -70.1C5.6 -65.8 11.2 -61.6 15.4 -57.6C19.7 -53.6 22.6 -49.9 28.6 -49.5C34.6 -49 43.7 -51.8 49.6 -49.6C55.5 -47.4 58.2 -40.2 58.1 -33.6C58.1 -26.9 55.2 -20.7 56.7 -15.2C58.3 -9.7 64.2 -4.8 70.1 0L0 0Z" fill="#fcf876"></path></g></svg>